<mxfile host="app.diagrams.net" modified="2023-12-20T12:12:49.756Z" agent="Mozilla/5.0 (Windows NT 10.0; Win64; x64) AppleWebKit/537.36 (KHTML, like Gecko) Chrome/120.0.0.0 Safari/537.36 Edg/120.0.0.0" etag="klmquVhDBKVZr_Spmt1q" version="22.1.11" type="github">
  <diagram name="第 1 页" id="rOowPREXF38yYOPp_aMI">
    <mxGraphModel dx="1730" dy="569" grid="1" gridSize="10" guides="1" tooltips="1" connect="1" arrows="1" fold="1" page="1" pageScale="1" pageWidth="827" pageHeight="1169" math="0" shadow="0">
      <root>
        <mxCell id="0" />
        <mxCell id="1" parent="0" />
        <mxCell id="J_O9TIOfIreDzyfjVYtf-25" value="停止服务" style="shape=step;perimeter=stepPerimeter;whiteSpace=wrap;html=1;fixedSize=1;fillColor=#fff2cc;strokeColor=#d6b656;" vertex="1" parent="1">
          <mxGeometry x="-340" y="230" width="420" height="40" as="geometry" />
        </mxCell>
        <mxCell id="J_O9TIOfIreDzyfjVYtf-26" value="" style="endArrow=none;dashed=1;html=1;dashPattern=1 3;strokeWidth=2;rounded=0;" edge="1" parent="1">
          <mxGeometry width="50" height="50" relative="1" as="geometry">
            <mxPoint x="120" y="620" as="sourcePoint" />
            <mxPoint x="120" y="230" as="targetPoint" />
          </mxGeometry>
        </mxCell>
        <mxCell id="J_O9TIOfIreDzyfjVYtf-27" value="DB" style="strokeWidth=2;html=1;shape=mxgraph.flowchart.direct_data;whiteSpace=wrap;fillColor=#dae8fc;strokeColor=#6c8ebf;" vertex="1" parent="1">
          <mxGeometry x="-330" y="330" width="100" height="60" as="geometry" />
        </mxCell>
        <mxCell id="J_O9TIOfIreDzyfjVYtf-31" value="BinLog&lt;br&gt;备份文件" style="shape=note;size=20;whiteSpace=wrap;html=1;fillColor=#d5e8d4;strokeColor=#82b366;" vertex="1" parent="1">
          <mxGeometry x="-30" y="300" width="100" height="100" as="geometry" />
        </mxCell>
        <mxCell id="J_O9TIOfIreDzyfjVYtf-50" value="TableB" style="shape=table;startSize=30;container=1;collapsible=0;childLayout=tableLayout;strokeColor=#6c8ebf;fontSize=10;fillColor=#dae8fc;" vertex="1" parent="1">
          <mxGeometry x="-300" y="510" width="65" height="60" as="geometry" />
        </mxCell>
        <mxCell id="J_O9TIOfIreDzyfjVYtf-51" value="" style="shape=tableRow;horizontal=0;startSize=0;swimlaneHead=0;swimlaneBody=0;strokeColor=inherit;top=0;left=0;bottom=0;right=0;collapsible=0;dropTarget=0;fillColor=none;points=[[0,0.5],[1,0.5]];portConstraint=eastwest;fontSize=16;" vertex="1" parent="J_O9TIOfIreDzyfjVYtf-50">
          <mxGeometry y="30" width="65" height="10" as="geometry" />
        </mxCell>
        <mxCell id="J_O9TIOfIreDzyfjVYtf-52" value="" style="shape=partialRectangle;html=1;whiteSpace=wrap;connectable=0;strokeColor=inherit;overflow=hidden;fillColor=none;top=0;left=0;bottom=0;right=0;pointerEvents=1;fontSize=16;" vertex="1" parent="J_O9TIOfIreDzyfjVYtf-51">
          <mxGeometry width="22" height="10" as="geometry">
            <mxRectangle width="22" height="10" as="alternateBounds" />
          </mxGeometry>
        </mxCell>
        <mxCell id="J_O9TIOfIreDzyfjVYtf-53" value="" style="shape=partialRectangle;html=1;whiteSpace=wrap;connectable=0;strokeColor=inherit;overflow=hidden;fillColor=none;top=0;left=0;bottom=0;right=0;pointerEvents=1;fontSize=16;" vertex="1" parent="J_O9TIOfIreDzyfjVYtf-51">
          <mxGeometry x="22" width="21" height="10" as="geometry">
            <mxRectangle width="21" height="10" as="alternateBounds" />
          </mxGeometry>
        </mxCell>
        <mxCell id="J_O9TIOfIreDzyfjVYtf-54" value="" style="shape=partialRectangle;html=1;whiteSpace=wrap;connectable=0;strokeColor=inherit;overflow=hidden;fillColor=none;top=0;left=0;bottom=0;right=0;pointerEvents=1;fontSize=16;" vertex="1" parent="J_O9TIOfIreDzyfjVYtf-51">
          <mxGeometry x="43" width="22" height="10" as="geometry">
            <mxRectangle width="22" height="10" as="alternateBounds" />
          </mxGeometry>
        </mxCell>
        <mxCell id="J_O9TIOfIreDzyfjVYtf-55" value="" style="shape=tableRow;horizontal=0;startSize=0;swimlaneHead=0;swimlaneBody=0;strokeColor=inherit;top=0;left=0;bottom=0;right=0;collapsible=0;dropTarget=0;fillColor=none;points=[[0,0.5],[1,0.5]];portConstraint=eastwest;fontSize=16;" vertex="1" parent="J_O9TIOfIreDzyfjVYtf-50">
          <mxGeometry y="40" width="65" height="10" as="geometry" />
        </mxCell>
        <mxCell id="J_O9TIOfIreDzyfjVYtf-56" value="" style="shape=partialRectangle;html=1;whiteSpace=wrap;connectable=0;strokeColor=inherit;overflow=hidden;fillColor=none;top=0;left=0;bottom=0;right=0;pointerEvents=1;fontSize=16;" vertex="1" parent="J_O9TIOfIreDzyfjVYtf-55">
          <mxGeometry width="22" height="10" as="geometry">
            <mxRectangle width="22" height="10" as="alternateBounds" />
          </mxGeometry>
        </mxCell>
        <mxCell id="J_O9TIOfIreDzyfjVYtf-57" value="" style="shape=partialRectangle;html=1;whiteSpace=wrap;connectable=0;strokeColor=inherit;overflow=hidden;fillColor=none;top=0;left=0;bottom=0;right=0;pointerEvents=1;fontSize=16;" vertex="1" parent="J_O9TIOfIreDzyfjVYtf-55">
          <mxGeometry x="22" width="21" height="10" as="geometry">
            <mxRectangle width="21" height="10" as="alternateBounds" />
          </mxGeometry>
        </mxCell>
        <mxCell id="J_O9TIOfIreDzyfjVYtf-58" value="" style="shape=partialRectangle;html=1;whiteSpace=wrap;connectable=0;strokeColor=inherit;overflow=hidden;fillColor=none;top=0;left=0;bottom=0;right=0;pointerEvents=1;fontSize=16;" vertex="1" parent="J_O9TIOfIreDzyfjVYtf-55">
          <mxGeometry x="43" width="22" height="10" as="geometry">
            <mxRectangle width="22" height="10" as="alternateBounds" />
          </mxGeometry>
        </mxCell>
        <mxCell id="J_O9TIOfIreDzyfjVYtf-59" value="" style="shape=tableRow;horizontal=0;startSize=0;swimlaneHead=0;swimlaneBody=0;strokeColor=inherit;top=0;left=0;bottom=0;right=0;collapsible=0;dropTarget=0;fillColor=none;points=[[0,0.5],[1,0.5]];portConstraint=eastwest;fontSize=16;" vertex="1" parent="J_O9TIOfIreDzyfjVYtf-50">
          <mxGeometry y="50" width="65" height="10" as="geometry" />
        </mxCell>
        <mxCell id="J_O9TIOfIreDzyfjVYtf-60" value="" style="shape=partialRectangle;html=1;whiteSpace=wrap;connectable=0;strokeColor=inherit;overflow=hidden;fillColor=none;top=0;left=0;bottom=0;right=0;pointerEvents=1;fontSize=16;" vertex="1" parent="J_O9TIOfIreDzyfjVYtf-59">
          <mxGeometry width="22" height="10" as="geometry">
            <mxRectangle width="22" height="10" as="alternateBounds" />
          </mxGeometry>
        </mxCell>
        <mxCell id="J_O9TIOfIreDzyfjVYtf-61" value="" style="shape=partialRectangle;html=1;whiteSpace=wrap;connectable=0;strokeColor=inherit;overflow=hidden;fillColor=none;top=0;left=0;bottom=0;right=0;pointerEvents=1;fontSize=16;" vertex="1" parent="J_O9TIOfIreDzyfjVYtf-59">
          <mxGeometry x="22" width="21" height="10" as="geometry">
            <mxRectangle width="21" height="10" as="alternateBounds" />
          </mxGeometry>
        </mxCell>
        <mxCell id="J_O9TIOfIreDzyfjVYtf-62" value="" style="shape=partialRectangle;html=1;whiteSpace=wrap;connectable=0;strokeColor=inherit;overflow=hidden;fillColor=none;top=0;left=0;bottom=0;right=0;pointerEvents=1;fontSize=16;" vertex="1" parent="J_O9TIOfIreDzyfjVYtf-59">
          <mxGeometry x="43" width="22" height="10" as="geometry">
            <mxRectangle width="22" height="10" as="alternateBounds" />
          </mxGeometry>
        </mxCell>
        <mxCell id="J_O9TIOfIreDzyfjVYtf-63" value="TableA" style="shape=table;startSize=30;container=1;collapsible=0;childLayout=tableLayout;strokeColor=#6c8ebf;fontSize=10;fillColor=#dae8fc;" vertex="1" parent="1">
          <mxGeometry x="-300" y="430" width="65" height="60" as="geometry" />
        </mxCell>
        <mxCell id="J_O9TIOfIreDzyfjVYtf-64" value="" style="shape=tableRow;horizontal=0;startSize=0;swimlaneHead=0;swimlaneBody=0;strokeColor=inherit;top=0;left=0;bottom=0;right=0;collapsible=0;dropTarget=0;fillColor=none;points=[[0,0.5],[1,0.5]];portConstraint=eastwest;fontSize=16;" vertex="1" parent="J_O9TIOfIreDzyfjVYtf-63">
          <mxGeometry y="30" width="65" height="10" as="geometry" />
        </mxCell>
        <mxCell id="J_O9TIOfIreDzyfjVYtf-65" value="" style="shape=partialRectangle;html=1;whiteSpace=wrap;connectable=0;strokeColor=inherit;overflow=hidden;fillColor=none;top=0;left=0;bottom=0;right=0;pointerEvents=1;fontSize=16;" vertex="1" parent="J_O9TIOfIreDzyfjVYtf-64">
          <mxGeometry width="22" height="10" as="geometry">
            <mxRectangle width="22" height="10" as="alternateBounds" />
          </mxGeometry>
        </mxCell>
        <mxCell id="J_O9TIOfIreDzyfjVYtf-66" value="" style="shape=partialRectangle;html=1;whiteSpace=wrap;connectable=0;strokeColor=inherit;overflow=hidden;fillColor=none;top=0;left=0;bottom=0;right=0;pointerEvents=1;fontSize=16;" vertex="1" parent="J_O9TIOfIreDzyfjVYtf-64">
          <mxGeometry x="22" width="21" height="10" as="geometry">
            <mxRectangle width="21" height="10" as="alternateBounds" />
          </mxGeometry>
        </mxCell>
        <mxCell id="J_O9TIOfIreDzyfjVYtf-67" value="" style="shape=partialRectangle;html=1;whiteSpace=wrap;connectable=0;strokeColor=inherit;overflow=hidden;fillColor=none;top=0;left=0;bottom=0;right=0;pointerEvents=1;fontSize=16;" vertex="1" parent="J_O9TIOfIreDzyfjVYtf-64">
          <mxGeometry x="43" width="22" height="10" as="geometry">
            <mxRectangle width="22" height="10" as="alternateBounds" />
          </mxGeometry>
        </mxCell>
        <mxCell id="J_O9TIOfIreDzyfjVYtf-68" value="" style="shape=tableRow;horizontal=0;startSize=0;swimlaneHead=0;swimlaneBody=0;strokeColor=inherit;top=0;left=0;bottom=0;right=0;collapsible=0;dropTarget=0;fillColor=none;points=[[0,0.5],[1,0.5]];portConstraint=eastwest;fontSize=16;" vertex="1" parent="J_O9TIOfIreDzyfjVYtf-63">
          <mxGeometry y="40" width="65" height="10" as="geometry" />
        </mxCell>
        <mxCell id="J_O9TIOfIreDzyfjVYtf-69" value="" style="shape=partialRectangle;html=1;whiteSpace=wrap;connectable=0;strokeColor=inherit;overflow=hidden;fillColor=none;top=0;left=0;bottom=0;right=0;pointerEvents=1;fontSize=16;" vertex="1" parent="J_O9TIOfIreDzyfjVYtf-68">
          <mxGeometry width="22" height="10" as="geometry">
            <mxRectangle width="22" height="10" as="alternateBounds" />
          </mxGeometry>
        </mxCell>
        <mxCell id="J_O9TIOfIreDzyfjVYtf-70" value="" style="shape=partialRectangle;html=1;whiteSpace=wrap;connectable=0;strokeColor=inherit;overflow=hidden;fillColor=none;top=0;left=0;bottom=0;right=0;pointerEvents=1;fontSize=16;" vertex="1" parent="J_O9TIOfIreDzyfjVYtf-68">
          <mxGeometry x="22" width="21" height="10" as="geometry">
            <mxRectangle width="21" height="10" as="alternateBounds" />
          </mxGeometry>
        </mxCell>
        <mxCell id="J_O9TIOfIreDzyfjVYtf-71" value="" style="shape=partialRectangle;html=1;whiteSpace=wrap;connectable=0;strokeColor=inherit;overflow=hidden;fillColor=none;top=0;left=0;bottom=0;right=0;pointerEvents=1;fontSize=16;" vertex="1" parent="J_O9TIOfIreDzyfjVYtf-68">
          <mxGeometry x="43" width="22" height="10" as="geometry">
            <mxRectangle width="22" height="10" as="alternateBounds" />
          </mxGeometry>
        </mxCell>
        <mxCell id="J_O9TIOfIreDzyfjVYtf-72" value="" style="shape=tableRow;horizontal=0;startSize=0;swimlaneHead=0;swimlaneBody=0;strokeColor=inherit;top=0;left=0;bottom=0;right=0;collapsible=0;dropTarget=0;fillColor=none;points=[[0,0.5],[1,0.5]];portConstraint=eastwest;fontSize=16;" vertex="1" parent="J_O9TIOfIreDzyfjVYtf-63">
          <mxGeometry y="50" width="65" height="10" as="geometry" />
        </mxCell>
        <mxCell id="J_O9TIOfIreDzyfjVYtf-73" value="" style="shape=partialRectangle;html=1;whiteSpace=wrap;connectable=0;strokeColor=inherit;overflow=hidden;fillColor=none;top=0;left=0;bottom=0;right=0;pointerEvents=1;fontSize=16;" vertex="1" parent="J_O9TIOfIreDzyfjVYtf-72">
          <mxGeometry width="22" height="10" as="geometry">
            <mxRectangle width="22" height="10" as="alternateBounds" />
          </mxGeometry>
        </mxCell>
        <mxCell id="J_O9TIOfIreDzyfjVYtf-74" value="" style="shape=partialRectangle;html=1;whiteSpace=wrap;connectable=0;strokeColor=inherit;overflow=hidden;fillColor=none;top=0;left=0;bottom=0;right=0;pointerEvents=1;fontSize=16;" vertex="1" parent="J_O9TIOfIreDzyfjVYtf-72">
          <mxGeometry x="22" width="21" height="10" as="geometry">
            <mxRectangle width="21" height="10" as="alternateBounds" />
          </mxGeometry>
        </mxCell>
        <mxCell id="J_O9TIOfIreDzyfjVYtf-75" value="" style="shape=partialRectangle;html=1;whiteSpace=wrap;connectable=0;strokeColor=inherit;overflow=hidden;fillColor=none;top=0;left=0;bottom=0;right=0;pointerEvents=1;fontSize=16;" vertex="1" parent="J_O9TIOfIreDzyfjVYtf-72">
          <mxGeometry x="43" width="22" height="10" as="geometry">
            <mxRectangle width="22" height="10" as="alternateBounds" />
          </mxGeometry>
        </mxCell>
        <mxCell id="J_O9TIOfIreDzyfjVYtf-76" value="" style="shape=flexArrow;endArrow=classic;html=1;rounded=0;" edge="1" parent="1">
          <mxGeometry width="50" height="50" relative="1" as="geometry">
            <mxPoint x="-200" y="360" as="sourcePoint" />
            <mxPoint x="-80" y="359.71" as="targetPoint" />
          </mxGeometry>
        </mxCell>
        <mxCell id="J_O9TIOfIreDzyfjVYtf-78" value="" style="shape=flexArrow;endArrow=classic;html=1;rounded=0;" edge="1" parent="1">
          <mxGeometry width="50" height="50" relative="1" as="geometry">
            <mxPoint x="-200" y="490.29" as="sourcePoint" />
            <mxPoint x="-80" y="490" as="targetPoint" />
          </mxGeometry>
        </mxCell>
        <mxCell id="J_O9TIOfIreDzyfjVYtf-79" value="TableB_v01" style="shape=table;startSize=30;container=1;collapsible=0;childLayout=tableLayout;strokeColor=#d6b656;fontSize=10;fillColor=#fff2cc;" vertex="1" parent="1">
          <mxGeometry x="-52.5" y="510" width="65" height="60" as="geometry" />
        </mxCell>
        <mxCell id="J_O9TIOfIreDzyfjVYtf-80" value="" style="shape=tableRow;horizontal=0;startSize=0;swimlaneHead=0;swimlaneBody=0;strokeColor=inherit;top=0;left=0;bottom=0;right=0;collapsible=0;dropTarget=0;fillColor=none;points=[[0,0.5],[1,0.5]];portConstraint=eastwest;fontSize=16;" vertex="1" parent="J_O9TIOfIreDzyfjVYtf-79">
          <mxGeometry y="30" width="65" height="10" as="geometry" />
        </mxCell>
        <mxCell id="J_O9TIOfIreDzyfjVYtf-81" value="" style="shape=partialRectangle;html=1;whiteSpace=wrap;connectable=0;strokeColor=inherit;overflow=hidden;fillColor=none;top=0;left=0;bottom=0;right=0;pointerEvents=1;fontSize=16;" vertex="1" parent="J_O9TIOfIreDzyfjVYtf-80">
          <mxGeometry width="22" height="10" as="geometry">
            <mxRectangle width="22" height="10" as="alternateBounds" />
          </mxGeometry>
        </mxCell>
        <mxCell id="J_O9TIOfIreDzyfjVYtf-82" value="" style="shape=partialRectangle;html=1;whiteSpace=wrap;connectable=0;strokeColor=inherit;overflow=hidden;fillColor=none;top=0;left=0;bottom=0;right=0;pointerEvents=1;fontSize=16;" vertex="1" parent="J_O9TIOfIreDzyfjVYtf-80">
          <mxGeometry x="22" width="21" height="10" as="geometry">
            <mxRectangle width="21" height="10" as="alternateBounds" />
          </mxGeometry>
        </mxCell>
        <mxCell id="J_O9TIOfIreDzyfjVYtf-83" value="" style="shape=partialRectangle;html=1;whiteSpace=wrap;connectable=0;strokeColor=inherit;overflow=hidden;fillColor=none;top=0;left=0;bottom=0;right=0;pointerEvents=1;fontSize=16;" vertex="1" parent="J_O9TIOfIreDzyfjVYtf-80">
          <mxGeometry x="43" width="22" height="10" as="geometry">
            <mxRectangle width="22" height="10" as="alternateBounds" />
          </mxGeometry>
        </mxCell>
        <mxCell id="J_O9TIOfIreDzyfjVYtf-84" value="" style="shape=tableRow;horizontal=0;startSize=0;swimlaneHead=0;swimlaneBody=0;strokeColor=inherit;top=0;left=0;bottom=0;right=0;collapsible=0;dropTarget=0;fillColor=none;points=[[0,0.5],[1,0.5]];portConstraint=eastwest;fontSize=16;" vertex="1" parent="J_O9TIOfIreDzyfjVYtf-79">
          <mxGeometry y="40" width="65" height="10" as="geometry" />
        </mxCell>
        <mxCell id="J_O9TIOfIreDzyfjVYtf-85" value="" style="shape=partialRectangle;html=1;whiteSpace=wrap;connectable=0;strokeColor=inherit;overflow=hidden;fillColor=none;top=0;left=0;bottom=0;right=0;pointerEvents=1;fontSize=16;" vertex="1" parent="J_O9TIOfIreDzyfjVYtf-84">
          <mxGeometry width="22" height="10" as="geometry">
            <mxRectangle width="22" height="10" as="alternateBounds" />
          </mxGeometry>
        </mxCell>
        <mxCell id="J_O9TIOfIreDzyfjVYtf-86" value="" style="shape=partialRectangle;html=1;whiteSpace=wrap;connectable=0;strokeColor=inherit;overflow=hidden;fillColor=none;top=0;left=0;bottom=0;right=0;pointerEvents=1;fontSize=16;" vertex="1" parent="J_O9TIOfIreDzyfjVYtf-84">
          <mxGeometry x="22" width="21" height="10" as="geometry">
            <mxRectangle width="21" height="10" as="alternateBounds" />
          </mxGeometry>
        </mxCell>
        <mxCell id="J_O9TIOfIreDzyfjVYtf-87" value="" style="shape=partialRectangle;html=1;whiteSpace=wrap;connectable=0;strokeColor=inherit;overflow=hidden;fillColor=none;top=0;left=0;bottom=0;right=0;pointerEvents=1;fontSize=16;" vertex="1" parent="J_O9TIOfIreDzyfjVYtf-84">
          <mxGeometry x="43" width="22" height="10" as="geometry">
            <mxRectangle width="22" height="10" as="alternateBounds" />
          </mxGeometry>
        </mxCell>
        <mxCell id="J_O9TIOfIreDzyfjVYtf-88" value="" style="shape=tableRow;horizontal=0;startSize=0;swimlaneHead=0;swimlaneBody=0;strokeColor=inherit;top=0;left=0;bottom=0;right=0;collapsible=0;dropTarget=0;fillColor=none;points=[[0,0.5],[1,0.5]];portConstraint=eastwest;fontSize=16;" vertex="1" parent="J_O9TIOfIreDzyfjVYtf-79">
          <mxGeometry y="50" width="65" height="10" as="geometry" />
        </mxCell>
        <mxCell id="J_O9TIOfIreDzyfjVYtf-89" value="" style="shape=partialRectangle;html=1;whiteSpace=wrap;connectable=0;strokeColor=inherit;overflow=hidden;fillColor=none;top=0;left=0;bottom=0;right=0;pointerEvents=1;fontSize=16;" vertex="1" parent="J_O9TIOfIreDzyfjVYtf-88">
          <mxGeometry width="22" height="10" as="geometry">
            <mxRectangle width="22" height="10" as="alternateBounds" />
          </mxGeometry>
        </mxCell>
        <mxCell id="J_O9TIOfIreDzyfjVYtf-90" value="" style="shape=partialRectangle;html=1;whiteSpace=wrap;connectable=0;strokeColor=inherit;overflow=hidden;fillColor=none;top=0;left=0;bottom=0;right=0;pointerEvents=1;fontSize=16;" vertex="1" parent="J_O9TIOfIreDzyfjVYtf-88">
          <mxGeometry x="22" width="21" height="10" as="geometry">
            <mxRectangle width="21" height="10" as="alternateBounds" />
          </mxGeometry>
        </mxCell>
        <mxCell id="J_O9TIOfIreDzyfjVYtf-91" value="" style="shape=partialRectangle;html=1;whiteSpace=wrap;connectable=0;strokeColor=inherit;overflow=hidden;fillColor=none;top=0;left=0;bottom=0;right=0;pointerEvents=1;fontSize=16;" vertex="1" parent="J_O9TIOfIreDzyfjVYtf-88">
          <mxGeometry x="43" width="22" height="10" as="geometry">
            <mxRectangle width="22" height="10" as="alternateBounds" />
          </mxGeometry>
        </mxCell>
        <mxCell id="J_O9TIOfIreDzyfjVYtf-92" value="TableA_v01" style="shape=table;startSize=30;container=1;collapsible=0;childLayout=tableLayout;strokeColor=#d6b656;fontSize=10;fillColor=#fff2cc;" vertex="1" parent="1">
          <mxGeometry x="-52.5" y="430" width="65" height="60" as="geometry" />
        </mxCell>
        <mxCell id="J_O9TIOfIreDzyfjVYtf-93" value="" style="shape=tableRow;horizontal=0;startSize=0;swimlaneHead=0;swimlaneBody=0;strokeColor=inherit;top=0;left=0;bottom=0;right=0;collapsible=0;dropTarget=0;fillColor=none;points=[[0,0.5],[1,0.5]];portConstraint=eastwest;fontSize=16;" vertex="1" parent="J_O9TIOfIreDzyfjVYtf-92">
          <mxGeometry y="30" width="65" height="10" as="geometry" />
        </mxCell>
        <mxCell id="J_O9TIOfIreDzyfjVYtf-94" value="" style="shape=partialRectangle;html=1;whiteSpace=wrap;connectable=0;strokeColor=inherit;overflow=hidden;fillColor=none;top=0;left=0;bottom=0;right=0;pointerEvents=1;fontSize=16;" vertex="1" parent="J_O9TIOfIreDzyfjVYtf-93">
          <mxGeometry width="22" height="10" as="geometry">
            <mxRectangle width="22" height="10" as="alternateBounds" />
          </mxGeometry>
        </mxCell>
        <mxCell id="J_O9TIOfIreDzyfjVYtf-95" value="" style="shape=partialRectangle;html=1;whiteSpace=wrap;connectable=0;strokeColor=inherit;overflow=hidden;fillColor=none;top=0;left=0;bottom=0;right=0;pointerEvents=1;fontSize=16;" vertex="1" parent="J_O9TIOfIreDzyfjVYtf-93">
          <mxGeometry x="22" width="21" height="10" as="geometry">
            <mxRectangle width="21" height="10" as="alternateBounds" />
          </mxGeometry>
        </mxCell>
        <mxCell id="J_O9TIOfIreDzyfjVYtf-96" value="" style="shape=partialRectangle;html=1;whiteSpace=wrap;connectable=0;strokeColor=inherit;overflow=hidden;fillColor=none;top=0;left=0;bottom=0;right=0;pointerEvents=1;fontSize=16;" vertex="1" parent="J_O9TIOfIreDzyfjVYtf-93">
          <mxGeometry x="43" width="22" height="10" as="geometry">
            <mxRectangle width="22" height="10" as="alternateBounds" />
          </mxGeometry>
        </mxCell>
        <mxCell id="J_O9TIOfIreDzyfjVYtf-97" value="" style="shape=tableRow;horizontal=0;startSize=0;swimlaneHead=0;swimlaneBody=0;strokeColor=inherit;top=0;left=0;bottom=0;right=0;collapsible=0;dropTarget=0;fillColor=none;points=[[0,0.5],[1,0.5]];portConstraint=eastwest;fontSize=16;" vertex="1" parent="J_O9TIOfIreDzyfjVYtf-92">
          <mxGeometry y="40" width="65" height="10" as="geometry" />
        </mxCell>
        <mxCell id="J_O9TIOfIreDzyfjVYtf-98" value="" style="shape=partialRectangle;html=1;whiteSpace=wrap;connectable=0;strokeColor=inherit;overflow=hidden;fillColor=none;top=0;left=0;bottom=0;right=0;pointerEvents=1;fontSize=16;" vertex="1" parent="J_O9TIOfIreDzyfjVYtf-97">
          <mxGeometry width="22" height="10" as="geometry">
            <mxRectangle width="22" height="10" as="alternateBounds" />
          </mxGeometry>
        </mxCell>
        <mxCell id="J_O9TIOfIreDzyfjVYtf-99" value="" style="shape=partialRectangle;html=1;whiteSpace=wrap;connectable=0;strokeColor=inherit;overflow=hidden;fillColor=none;top=0;left=0;bottom=0;right=0;pointerEvents=1;fontSize=16;" vertex="1" parent="J_O9TIOfIreDzyfjVYtf-97">
          <mxGeometry x="22" width="21" height="10" as="geometry">
            <mxRectangle width="21" height="10" as="alternateBounds" />
          </mxGeometry>
        </mxCell>
        <mxCell id="J_O9TIOfIreDzyfjVYtf-100" value="" style="shape=partialRectangle;html=1;whiteSpace=wrap;connectable=0;strokeColor=inherit;overflow=hidden;fillColor=none;top=0;left=0;bottom=0;right=0;pointerEvents=1;fontSize=16;" vertex="1" parent="J_O9TIOfIreDzyfjVYtf-97">
          <mxGeometry x="43" width="22" height="10" as="geometry">
            <mxRectangle width="22" height="10" as="alternateBounds" />
          </mxGeometry>
        </mxCell>
        <mxCell id="J_O9TIOfIreDzyfjVYtf-101" value="" style="shape=tableRow;horizontal=0;startSize=0;swimlaneHead=0;swimlaneBody=0;strokeColor=inherit;top=0;left=0;bottom=0;right=0;collapsible=0;dropTarget=0;fillColor=none;points=[[0,0.5],[1,0.5]];portConstraint=eastwest;fontSize=16;" vertex="1" parent="J_O9TIOfIreDzyfjVYtf-92">
          <mxGeometry y="50" width="65" height="10" as="geometry" />
        </mxCell>
        <mxCell id="J_O9TIOfIreDzyfjVYtf-102" value="" style="shape=partialRectangle;html=1;whiteSpace=wrap;connectable=0;strokeColor=inherit;overflow=hidden;fillColor=none;top=0;left=0;bottom=0;right=0;pointerEvents=1;fontSize=16;" vertex="1" parent="J_O9TIOfIreDzyfjVYtf-101">
          <mxGeometry width="22" height="10" as="geometry">
            <mxRectangle width="22" height="10" as="alternateBounds" />
          </mxGeometry>
        </mxCell>
        <mxCell id="J_O9TIOfIreDzyfjVYtf-103" value="" style="shape=partialRectangle;html=1;whiteSpace=wrap;connectable=0;strokeColor=inherit;overflow=hidden;fillColor=none;top=0;left=0;bottom=0;right=0;pointerEvents=1;fontSize=16;" vertex="1" parent="J_O9TIOfIreDzyfjVYtf-101">
          <mxGeometry x="22" width="21" height="10" as="geometry">
            <mxRectangle width="21" height="10" as="alternateBounds" />
          </mxGeometry>
        </mxCell>
        <mxCell id="J_O9TIOfIreDzyfjVYtf-104" value="" style="shape=partialRectangle;html=1;whiteSpace=wrap;connectable=0;strokeColor=inherit;overflow=hidden;fillColor=none;top=0;left=0;bottom=0;right=0;pointerEvents=1;fontSize=16;" vertex="1" parent="J_O9TIOfIreDzyfjVYtf-101">
          <mxGeometry x="43" width="22" height="10" as="geometry">
            <mxRectangle width="22" height="10" as="alternateBounds" />
          </mxGeometry>
        </mxCell>
        <mxCell id="J_O9TIOfIreDzyfjVYtf-105" value="TableB_tmp" style="shape=table;startSize=30;container=1;collapsible=0;childLayout=tableLayout;strokeColor=#b85450;fontSize=10;fillColor=#f8cecc;" vertex="1" parent="1">
          <mxGeometry x="27.5" y="510" width="65" height="60" as="geometry" />
        </mxCell>
        <mxCell id="J_O9TIOfIreDzyfjVYtf-106" value="" style="shape=tableRow;horizontal=0;startSize=0;swimlaneHead=0;swimlaneBody=0;strokeColor=inherit;top=0;left=0;bottom=0;right=0;collapsible=0;dropTarget=0;fillColor=none;points=[[0,0.5],[1,0.5]];portConstraint=eastwest;fontSize=16;" vertex="1" parent="J_O9TIOfIreDzyfjVYtf-105">
          <mxGeometry y="30" width="65" height="10" as="geometry" />
        </mxCell>
        <mxCell id="J_O9TIOfIreDzyfjVYtf-107" value="" style="shape=partialRectangle;html=1;whiteSpace=wrap;connectable=0;strokeColor=inherit;overflow=hidden;fillColor=none;top=0;left=0;bottom=0;right=0;pointerEvents=1;fontSize=16;" vertex="1" parent="J_O9TIOfIreDzyfjVYtf-106">
          <mxGeometry width="22" height="10" as="geometry">
            <mxRectangle width="22" height="10" as="alternateBounds" />
          </mxGeometry>
        </mxCell>
        <mxCell id="J_O9TIOfIreDzyfjVYtf-108" value="" style="shape=partialRectangle;html=1;whiteSpace=wrap;connectable=0;strokeColor=inherit;overflow=hidden;fillColor=none;top=0;left=0;bottom=0;right=0;pointerEvents=1;fontSize=16;" vertex="1" parent="J_O9TIOfIreDzyfjVYtf-106">
          <mxGeometry x="22" width="21" height="10" as="geometry">
            <mxRectangle width="21" height="10" as="alternateBounds" />
          </mxGeometry>
        </mxCell>
        <mxCell id="J_O9TIOfIreDzyfjVYtf-109" value="" style="shape=partialRectangle;html=1;whiteSpace=wrap;connectable=0;strokeColor=inherit;overflow=hidden;fillColor=none;top=0;left=0;bottom=0;right=0;pointerEvents=1;fontSize=16;" vertex="1" parent="J_O9TIOfIreDzyfjVYtf-106">
          <mxGeometry x="43" width="22" height="10" as="geometry">
            <mxRectangle width="22" height="10" as="alternateBounds" />
          </mxGeometry>
        </mxCell>
        <mxCell id="J_O9TIOfIreDzyfjVYtf-110" value="" style="shape=tableRow;horizontal=0;startSize=0;swimlaneHead=0;swimlaneBody=0;strokeColor=inherit;top=0;left=0;bottom=0;right=0;collapsible=0;dropTarget=0;fillColor=none;points=[[0,0.5],[1,0.5]];portConstraint=eastwest;fontSize=16;" vertex="1" parent="J_O9TIOfIreDzyfjVYtf-105">
          <mxGeometry y="40" width="65" height="10" as="geometry" />
        </mxCell>
        <mxCell id="J_O9TIOfIreDzyfjVYtf-111" value="" style="shape=partialRectangle;html=1;whiteSpace=wrap;connectable=0;strokeColor=inherit;overflow=hidden;fillColor=none;top=0;left=0;bottom=0;right=0;pointerEvents=1;fontSize=16;" vertex="1" parent="J_O9TIOfIreDzyfjVYtf-110">
          <mxGeometry width="22" height="10" as="geometry">
            <mxRectangle width="22" height="10" as="alternateBounds" />
          </mxGeometry>
        </mxCell>
        <mxCell id="J_O9TIOfIreDzyfjVYtf-112" value="" style="shape=partialRectangle;html=1;whiteSpace=wrap;connectable=0;strokeColor=inherit;overflow=hidden;fillColor=none;top=0;left=0;bottom=0;right=0;pointerEvents=1;fontSize=16;" vertex="1" parent="J_O9TIOfIreDzyfjVYtf-110">
          <mxGeometry x="22" width="21" height="10" as="geometry">
            <mxRectangle width="21" height="10" as="alternateBounds" />
          </mxGeometry>
        </mxCell>
        <mxCell id="J_O9TIOfIreDzyfjVYtf-113" value="" style="shape=partialRectangle;html=1;whiteSpace=wrap;connectable=0;strokeColor=inherit;overflow=hidden;fillColor=none;top=0;left=0;bottom=0;right=0;pointerEvents=1;fontSize=16;" vertex="1" parent="J_O9TIOfIreDzyfjVYtf-110">
          <mxGeometry x="43" width="22" height="10" as="geometry">
            <mxRectangle width="22" height="10" as="alternateBounds" />
          </mxGeometry>
        </mxCell>
        <mxCell id="J_O9TIOfIreDzyfjVYtf-114" value="" style="shape=tableRow;horizontal=0;startSize=0;swimlaneHead=0;swimlaneBody=0;strokeColor=inherit;top=0;left=0;bottom=0;right=0;collapsible=0;dropTarget=0;fillColor=none;points=[[0,0.5],[1,0.5]];portConstraint=eastwest;fontSize=16;" vertex="1" parent="J_O9TIOfIreDzyfjVYtf-105">
          <mxGeometry y="50" width="65" height="10" as="geometry" />
        </mxCell>
        <mxCell id="J_O9TIOfIreDzyfjVYtf-115" value="" style="shape=partialRectangle;html=1;whiteSpace=wrap;connectable=0;strokeColor=inherit;overflow=hidden;fillColor=none;top=0;left=0;bottom=0;right=0;pointerEvents=1;fontSize=16;" vertex="1" parent="J_O9TIOfIreDzyfjVYtf-114">
          <mxGeometry width="22" height="10" as="geometry">
            <mxRectangle width="22" height="10" as="alternateBounds" />
          </mxGeometry>
        </mxCell>
        <mxCell id="J_O9TIOfIreDzyfjVYtf-116" value="" style="shape=partialRectangle;html=1;whiteSpace=wrap;connectable=0;strokeColor=inherit;overflow=hidden;fillColor=none;top=0;left=0;bottom=0;right=0;pointerEvents=1;fontSize=16;" vertex="1" parent="J_O9TIOfIreDzyfjVYtf-114">
          <mxGeometry x="22" width="21" height="10" as="geometry">
            <mxRectangle width="21" height="10" as="alternateBounds" />
          </mxGeometry>
        </mxCell>
        <mxCell id="J_O9TIOfIreDzyfjVYtf-117" value="" style="shape=partialRectangle;html=1;whiteSpace=wrap;connectable=0;strokeColor=inherit;overflow=hidden;fillColor=none;top=0;left=0;bottom=0;right=0;pointerEvents=1;fontSize=16;" vertex="1" parent="J_O9TIOfIreDzyfjVYtf-114">
          <mxGeometry x="43" width="22" height="10" as="geometry">
            <mxRectangle width="22" height="10" as="alternateBounds" />
          </mxGeometry>
        </mxCell>
        <mxCell id="J_O9TIOfIreDzyfjVYtf-118" value="TableA_tmp" style="shape=table;startSize=30;container=1;collapsible=0;childLayout=tableLayout;strokeColor=#b85450;fontSize=10;fillColor=#f8cecc;" vertex="1" parent="1">
          <mxGeometry x="27.5" y="430" width="65" height="60" as="geometry" />
        </mxCell>
        <mxCell id="J_O9TIOfIreDzyfjVYtf-119" value="" style="shape=tableRow;horizontal=0;startSize=0;swimlaneHead=0;swimlaneBody=0;strokeColor=inherit;top=0;left=0;bottom=0;right=0;collapsible=0;dropTarget=0;fillColor=none;points=[[0,0.5],[1,0.5]];portConstraint=eastwest;fontSize=16;" vertex="1" parent="J_O9TIOfIreDzyfjVYtf-118">
          <mxGeometry y="30" width="65" height="10" as="geometry" />
        </mxCell>
        <mxCell id="J_O9TIOfIreDzyfjVYtf-120" value="" style="shape=partialRectangle;html=1;whiteSpace=wrap;connectable=0;strokeColor=inherit;overflow=hidden;fillColor=none;top=0;left=0;bottom=0;right=0;pointerEvents=1;fontSize=16;" vertex="1" parent="J_O9TIOfIreDzyfjVYtf-119">
          <mxGeometry width="22" height="10" as="geometry">
            <mxRectangle width="22" height="10" as="alternateBounds" />
          </mxGeometry>
        </mxCell>
        <mxCell id="J_O9TIOfIreDzyfjVYtf-121" value="" style="shape=partialRectangle;html=1;whiteSpace=wrap;connectable=0;strokeColor=inherit;overflow=hidden;fillColor=none;top=0;left=0;bottom=0;right=0;pointerEvents=1;fontSize=16;" vertex="1" parent="J_O9TIOfIreDzyfjVYtf-119">
          <mxGeometry x="22" width="21" height="10" as="geometry">
            <mxRectangle width="21" height="10" as="alternateBounds" />
          </mxGeometry>
        </mxCell>
        <mxCell id="J_O9TIOfIreDzyfjVYtf-122" value="" style="shape=partialRectangle;html=1;whiteSpace=wrap;connectable=0;strokeColor=inherit;overflow=hidden;fillColor=none;top=0;left=0;bottom=0;right=0;pointerEvents=1;fontSize=16;" vertex="1" parent="J_O9TIOfIreDzyfjVYtf-119">
          <mxGeometry x="43" width="22" height="10" as="geometry">
            <mxRectangle width="22" height="10" as="alternateBounds" />
          </mxGeometry>
        </mxCell>
        <mxCell id="J_O9TIOfIreDzyfjVYtf-123" value="" style="shape=tableRow;horizontal=0;startSize=0;swimlaneHead=0;swimlaneBody=0;strokeColor=inherit;top=0;left=0;bottom=0;right=0;collapsible=0;dropTarget=0;fillColor=none;points=[[0,0.5],[1,0.5]];portConstraint=eastwest;fontSize=16;" vertex="1" parent="J_O9TIOfIreDzyfjVYtf-118">
          <mxGeometry y="40" width="65" height="10" as="geometry" />
        </mxCell>
        <mxCell id="J_O9TIOfIreDzyfjVYtf-124" value="" style="shape=partialRectangle;html=1;whiteSpace=wrap;connectable=0;strokeColor=inherit;overflow=hidden;fillColor=none;top=0;left=0;bottom=0;right=0;pointerEvents=1;fontSize=16;" vertex="1" parent="J_O9TIOfIreDzyfjVYtf-123">
          <mxGeometry width="22" height="10" as="geometry">
            <mxRectangle width="22" height="10" as="alternateBounds" />
          </mxGeometry>
        </mxCell>
        <mxCell id="J_O9TIOfIreDzyfjVYtf-125" value="" style="shape=partialRectangle;html=1;whiteSpace=wrap;connectable=0;strokeColor=inherit;overflow=hidden;fillColor=none;top=0;left=0;bottom=0;right=0;pointerEvents=1;fontSize=16;" vertex="1" parent="J_O9TIOfIreDzyfjVYtf-123">
          <mxGeometry x="22" width="21" height="10" as="geometry">
            <mxRectangle width="21" height="10" as="alternateBounds" />
          </mxGeometry>
        </mxCell>
        <mxCell id="J_O9TIOfIreDzyfjVYtf-126" value="" style="shape=partialRectangle;html=1;whiteSpace=wrap;connectable=0;strokeColor=inherit;overflow=hidden;fillColor=none;top=0;left=0;bottom=0;right=0;pointerEvents=1;fontSize=16;" vertex="1" parent="J_O9TIOfIreDzyfjVYtf-123">
          <mxGeometry x="43" width="22" height="10" as="geometry">
            <mxRectangle width="22" height="10" as="alternateBounds" />
          </mxGeometry>
        </mxCell>
        <mxCell id="J_O9TIOfIreDzyfjVYtf-127" value="" style="shape=tableRow;horizontal=0;startSize=0;swimlaneHead=0;swimlaneBody=0;strokeColor=inherit;top=0;left=0;bottom=0;right=0;collapsible=0;dropTarget=0;fillColor=none;points=[[0,0.5],[1,0.5]];portConstraint=eastwest;fontSize=16;" vertex="1" parent="J_O9TIOfIreDzyfjVYtf-118">
          <mxGeometry y="50" width="65" height="10" as="geometry" />
        </mxCell>
        <mxCell id="J_O9TIOfIreDzyfjVYtf-128" value="" style="shape=partialRectangle;html=1;whiteSpace=wrap;connectable=0;strokeColor=inherit;overflow=hidden;fillColor=none;top=0;left=0;bottom=0;right=0;pointerEvents=1;fontSize=16;" vertex="1" parent="J_O9TIOfIreDzyfjVYtf-127">
          <mxGeometry width="22" height="10" as="geometry">
            <mxRectangle width="22" height="10" as="alternateBounds" />
          </mxGeometry>
        </mxCell>
        <mxCell id="J_O9TIOfIreDzyfjVYtf-129" value="" style="shape=partialRectangle;html=1;whiteSpace=wrap;connectable=0;strokeColor=inherit;overflow=hidden;fillColor=none;top=0;left=0;bottom=0;right=0;pointerEvents=1;fontSize=16;" vertex="1" parent="J_O9TIOfIreDzyfjVYtf-127">
          <mxGeometry x="22" width="21" height="10" as="geometry">
            <mxRectangle width="21" height="10" as="alternateBounds" />
          </mxGeometry>
        </mxCell>
        <mxCell id="J_O9TIOfIreDzyfjVYtf-130" value="" style="shape=partialRectangle;html=1;whiteSpace=wrap;connectable=0;strokeColor=inherit;overflow=hidden;fillColor=none;top=0;left=0;bottom=0;right=0;pointerEvents=1;fontSize=16;" vertex="1" parent="J_O9TIOfIreDzyfjVYtf-127">
          <mxGeometry x="43" width="22" height="10" as="geometry">
            <mxRectangle width="22" height="10" as="alternateBounds" />
          </mxGeometry>
        </mxCell>
        <mxCell id="J_O9TIOfIreDzyfjVYtf-131" value="①整库快照备份" style="text;html=1;strokeColor=none;fillColor=none;align=center;verticalAlign=middle;whiteSpace=wrap;rounded=0;" vertex="1" parent="1">
          <mxGeometry x="-200" y="320" width="90" height="30" as="geometry" />
        </mxCell>
        <mxCell id="J_O9TIOfIreDzyfjVYtf-132" value="②登记表双重备份" style="text;html=1;strokeColor=none;fillColor=none;align=center;verticalAlign=middle;whiteSpace=wrap;rounded=0;" vertex="1" parent="1">
          <mxGeometry x="-200" y="445" width="100" height="30" as="geometry" />
        </mxCell>
        <mxCell id="J_O9TIOfIreDzyfjVYtf-133" value="出现数据污染，进行数据回滚" style="shape=step;perimeter=stepPerimeter;whiteSpace=wrap;html=1;fixedSize=1;fillColor=#ffe6cc;strokeColor=#d79b00;" vertex="1" parent="1">
          <mxGeometry x="150" y="230" width="420" height="40" as="geometry" />
        </mxCell>
        <mxCell id="J_O9TIOfIreDzyfjVYtf-147" value="TableA" style="shape=table;startSize=30;container=1;collapsible=0;childLayout=tableLayout;strokeColor=#6c8ebf;fontSize=10;fillColor=#dae8fc;" vertex="1" parent="1">
          <mxGeometry x="190" y="330" width="65" height="60" as="geometry" />
        </mxCell>
        <mxCell id="J_O9TIOfIreDzyfjVYtf-148" value="" style="shape=tableRow;horizontal=0;startSize=0;swimlaneHead=0;swimlaneBody=0;strokeColor=inherit;top=0;left=0;bottom=0;right=0;collapsible=0;dropTarget=0;fillColor=none;points=[[0,0.5],[1,0.5]];portConstraint=eastwest;fontSize=16;" vertex="1" parent="J_O9TIOfIreDzyfjVYtf-147">
          <mxGeometry y="30" width="65" height="10" as="geometry" />
        </mxCell>
        <mxCell id="J_O9TIOfIreDzyfjVYtf-149" value="" style="shape=partialRectangle;html=1;whiteSpace=wrap;connectable=0;strokeColor=inherit;overflow=hidden;fillColor=none;top=0;left=0;bottom=0;right=0;pointerEvents=1;fontSize=16;" vertex="1" parent="J_O9TIOfIreDzyfjVYtf-148">
          <mxGeometry width="22" height="10" as="geometry">
            <mxRectangle width="22" height="10" as="alternateBounds" />
          </mxGeometry>
        </mxCell>
        <mxCell id="J_O9TIOfIreDzyfjVYtf-150" value="" style="shape=partialRectangle;html=1;whiteSpace=wrap;connectable=0;strokeColor=inherit;overflow=hidden;fillColor=none;top=0;left=0;bottom=0;right=0;pointerEvents=1;fontSize=16;" vertex="1" parent="J_O9TIOfIreDzyfjVYtf-148">
          <mxGeometry x="22" width="21" height="10" as="geometry">
            <mxRectangle width="21" height="10" as="alternateBounds" />
          </mxGeometry>
        </mxCell>
        <mxCell id="J_O9TIOfIreDzyfjVYtf-151" value="" style="shape=partialRectangle;html=1;whiteSpace=wrap;connectable=0;strokeColor=inherit;overflow=hidden;fillColor=none;top=0;left=0;bottom=0;right=0;pointerEvents=1;fontSize=16;" vertex="1" parent="J_O9TIOfIreDzyfjVYtf-148">
          <mxGeometry x="43" width="22" height="10" as="geometry">
            <mxRectangle width="22" height="10" as="alternateBounds" />
          </mxGeometry>
        </mxCell>
        <mxCell id="J_O9TIOfIreDzyfjVYtf-152" value="" style="shape=tableRow;horizontal=0;startSize=0;swimlaneHead=0;swimlaneBody=0;strokeColor=inherit;top=0;left=0;bottom=0;right=0;collapsible=0;dropTarget=0;fillColor=none;points=[[0,0.5],[1,0.5]];portConstraint=eastwest;fontSize=16;" vertex="1" parent="J_O9TIOfIreDzyfjVYtf-147">
          <mxGeometry y="40" width="65" height="10" as="geometry" />
        </mxCell>
        <mxCell id="J_O9TIOfIreDzyfjVYtf-153" value="" style="shape=partialRectangle;html=1;whiteSpace=wrap;connectable=0;strokeColor=inherit;overflow=hidden;fillColor=none;top=0;left=0;bottom=0;right=0;pointerEvents=1;fontSize=16;" vertex="1" parent="J_O9TIOfIreDzyfjVYtf-152">
          <mxGeometry width="22" height="10" as="geometry">
            <mxRectangle width="22" height="10" as="alternateBounds" />
          </mxGeometry>
        </mxCell>
        <mxCell id="J_O9TIOfIreDzyfjVYtf-154" value="" style="shape=partialRectangle;html=1;whiteSpace=wrap;connectable=0;strokeColor=inherit;overflow=hidden;fillColor=none;top=0;left=0;bottom=0;right=0;pointerEvents=1;fontSize=16;" vertex="1" parent="J_O9TIOfIreDzyfjVYtf-152">
          <mxGeometry x="22" width="21" height="10" as="geometry">
            <mxRectangle width="21" height="10" as="alternateBounds" />
          </mxGeometry>
        </mxCell>
        <mxCell id="J_O9TIOfIreDzyfjVYtf-155" value="" style="shape=partialRectangle;html=1;whiteSpace=wrap;connectable=0;strokeColor=inherit;overflow=hidden;fillColor=none;top=0;left=0;bottom=0;right=0;pointerEvents=1;fontSize=16;" vertex="1" parent="J_O9TIOfIreDzyfjVYtf-152">
          <mxGeometry x="43" width="22" height="10" as="geometry">
            <mxRectangle width="22" height="10" as="alternateBounds" />
          </mxGeometry>
        </mxCell>
        <mxCell id="J_O9TIOfIreDzyfjVYtf-156" value="" style="shape=tableRow;horizontal=0;startSize=0;swimlaneHead=0;swimlaneBody=0;strokeColor=inherit;top=0;left=0;bottom=0;right=0;collapsible=0;dropTarget=0;fillColor=none;points=[[0,0.5],[1,0.5]];portConstraint=eastwest;fontSize=16;" vertex="1" parent="J_O9TIOfIreDzyfjVYtf-147">
          <mxGeometry y="50" width="65" height="10" as="geometry" />
        </mxCell>
        <mxCell id="J_O9TIOfIreDzyfjVYtf-157" value="" style="shape=partialRectangle;html=1;whiteSpace=wrap;connectable=0;strokeColor=inherit;overflow=hidden;fillColor=none;top=0;left=0;bottom=0;right=0;pointerEvents=1;fontSize=16;" vertex="1" parent="J_O9TIOfIreDzyfjVYtf-156">
          <mxGeometry width="22" height="10" as="geometry">
            <mxRectangle width="22" height="10" as="alternateBounds" />
          </mxGeometry>
        </mxCell>
        <mxCell id="J_O9TIOfIreDzyfjVYtf-158" value="" style="shape=partialRectangle;html=1;whiteSpace=wrap;connectable=0;strokeColor=inherit;overflow=hidden;fillColor=none;top=0;left=0;bottom=0;right=0;pointerEvents=1;fontSize=16;" vertex="1" parent="J_O9TIOfIreDzyfjVYtf-156">
          <mxGeometry x="22" width="21" height="10" as="geometry">
            <mxRectangle width="21" height="10" as="alternateBounds" />
          </mxGeometry>
        </mxCell>
        <mxCell id="J_O9TIOfIreDzyfjVYtf-159" value="" style="shape=partialRectangle;html=1;whiteSpace=wrap;connectable=0;strokeColor=inherit;overflow=hidden;fillColor=none;top=0;left=0;bottom=0;right=0;pointerEvents=1;fontSize=16;" vertex="1" parent="J_O9TIOfIreDzyfjVYtf-156">
          <mxGeometry x="43" width="22" height="10" as="geometry">
            <mxRectangle width="22" height="10" as="alternateBounds" />
          </mxGeometry>
        </mxCell>
        <mxCell id="J_O9TIOfIreDzyfjVYtf-160" value="" style="shape=flexArrow;endArrow=classic;html=1;rounded=0;" edge="1" parent="1">
          <mxGeometry width="50" height="50" relative="1" as="geometry">
            <mxPoint x="280" y="359.95000000000005" as="sourcePoint" />
            <mxPoint x="400" y="359.65999999999997" as="targetPoint" />
          </mxGeometry>
        </mxCell>
        <mxCell id="J_O9TIOfIreDzyfjVYtf-174" value="TableA_Err01" style="shape=table;startSize=30;container=1;collapsible=0;childLayout=tableLayout;strokeColor=#6c8ebf;fontSize=10;fillColor=#dae8fc;" vertex="1" parent="1">
          <mxGeometry x="420" y="330" width="65" height="60" as="geometry" />
        </mxCell>
        <mxCell id="J_O9TIOfIreDzyfjVYtf-175" value="" style="shape=tableRow;horizontal=0;startSize=0;swimlaneHead=0;swimlaneBody=0;strokeColor=inherit;top=0;left=0;bottom=0;right=0;collapsible=0;dropTarget=0;fillColor=none;points=[[0,0.5],[1,0.5]];portConstraint=eastwest;fontSize=16;" vertex="1" parent="J_O9TIOfIreDzyfjVYtf-174">
          <mxGeometry y="30" width="65" height="10" as="geometry" />
        </mxCell>
        <mxCell id="J_O9TIOfIreDzyfjVYtf-176" value="" style="shape=partialRectangle;html=1;whiteSpace=wrap;connectable=0;strokeColor=inherit;overflow=hidden;fillColor=none;top=0;left=0;bottom=0;right=0;pointerEvents=1;fontSize=16;" vertex="1" parent="J_O9TIOfIreDzyfjVYtf-175">
          <mxGeometry width="22" height="10" as="geometry">
            <mxRectangle width="22" height="10" as="alternateBounds" />
          </mxGeometry>
        </mxCell>
        <mxCell id="J_O9TIOfIreDzyfjVYtf-177" value="" style="shape=partialRectangle;html=1;whiteSpace=wrap;connectable=0;strokeColor=inherit;overflow=hidden;fillColor=none;top=0;left=0;bottom=0;right=0;pointerEvents=1;fontSize=16;" vertex="1" parent="J_O9TIOfIreDzyfjVYtf-175">
          <mxGeometry x="22" width="21" height="10" as="geometry">
            <mxRectangle width="21" height="10" as="alternateBounds" />
          </mxGeometry>
        </mxCell>
        <mxCell id="J_O9TIOfIreDzyfjVYtf-178" value="" style="shape=partialRectangle;html=1;whiteSpace=wrap;connectable=0;strokeColor=inherit;overflow=hidden;fillColor=none;top=0;left=0;bottom=0;right=0;pointerEvents=1;fontSize=16;" vertex="1" parent="J_O9TIOfIreDzyfjVYtf-175">
          <mxGeometry x="43" width="22" height="10" as="geometry">
            <mxRectangle width="22" height="10" as="alternateBounds" />
          </mxGeometry>
        </mxCell>
        <mxCell id="J_O9TIOfIreDzyfjVYtf-179" value="" style="shape=tableRow;horizontal=0;startSize=0;swimlaneHead=0;swimlaneBody=0;strokeColor=inherit;top=0;left=0;bottom=0;right=0;collapsible=0;dropTarget=0;fillColor=none;points=[[0,0.5],[1,0.5]];portConstraint=eastwest;fontSize=16;" vertex="1" parent="J_O9TIOfIreDzyfjVYtf-174">
          <mxGeometry y="40" width="65" height="10" as="geometry" />
        </mxCell>
        <mxCell id="J_O9TIOfIreDzyfjVYtf-180" value="" style="shape=partialRectangle;html=1;whiteSpace=wrap;connectable=0;strokeColor=inherit;overflow=hidden;fillColor=none;top=0;left=0;bottom=0;right=0;pointerEvents=1;fontSize=16;" vertex="1" parent="J_O9TIOfIreDzyfjVYtf-179">
          <mxGeometry width="22" height="10" as="geometry">
            <mxRectangle width="22" height="10" as="alternateBounds" />
          </mxGeometry>
        </mxCell>
        <mxCell id="J_O9TIOfIreDzyfjVYtf-181" value="" style="shape=partialRectangle;html=1;whiteSpace=wrap;connectable=0;strokeColor=inherit;overflow=hidden;fillColor=none;top=0;left=0;bottom=0;right=0;pointerEvents=1;fontSize=16;" vertex="1" parent="J_O9TIOfIreDzyfjVYtf-179">
          <mxGeometry x="22" width="21" height="10" as="geometry">
            <mxRectangle width="21" height="10" as="alternateBounds" />
          </mxGeometry>
        </mxCell>
        <mxCell id="J_O9TIOfIreDzyfjVYtf-182" value="" style="shape=partialRectangle;html=1;whiteSpace=wrap;connectable=0;strokeColor=inherit;overflow=hidden;fillColor=none;top=0;left=0;bottom=0;right=0;pointerEvents=1;fontSize=16;" vertex="1" parent="J_O9TIOfIreDzyfjVYtf-179">
          <mxGeometry x="43" width="22" height="10" as="geometry">
            <mxRectangle width="22" height="10" as="alternateBounds" />
          </mxGeometry>
        </mxCell>
        <mxCell id="J_O9TIOfIreDzyfjVYtf-183" value="" style="shape=tableRow;horizontal=0;startSize=0;swimlaneHead=0;swimlaneBody=0;strokeColor=inherit;top=0;left=0;bottom=0;right=0;collapsible=0;dropTarget=0;fillColor=none;points=[[0,0.5],[1,0.5]];portConstraint=eastwest;fontSize=16;" vertex="1" parent="J_O9TIOfIreDzyfjVYtf-174">
          <mxGeometry y="50" width="65" height="10" as="geometry" />
        </mxCell>
        <mxCell id="J_O9TIOfIreDzyfjVYtf-184" value="" style="shape=partialRectangle;html=1;whiteSpace=wrap;connectable=0;strokeColor=inherit;overflow=hidden;fillColor=none;top=0;left=0;bottom=0;right=0;pointerEvents=1;fontSize=16;" vertex="1" parent="J_O9TIOfIreDzyfjVYtf-183">
          <mxGeometry width="22" height="10" as="geometry">
            <mxRectangle width="22" height="10" as="alternateBounds" />
          </mxGeometry>
        </mxCell>
        <mxCell id="J_O9TIOfIreDzyfjVYtf-185" value="" style="shape=partialRectangle;html=1;whiteSpace=wrap;connectable=0;strokeColor=inherit;overflow=hidden;fillColor=none;top=0;left=0;bottom=0;right=0;pointerEvents=1;fontSize=16;" vertex="1" parent="J_O9TIOfIreDzyfjVYtf-183">
          <mxGeometry x="22" width="21" height="10" as="geometry">
            <mxRectangle width="21" height="10" as="alternateBounds" />
          </mxGeometry>
        </mxCell>
        <mxCell id="J_O9TIOfIreDzyfjVYtf-186" value="" style="shape=partialRectangle;html=1;whiteSpace=wrap;connectable=0;strokeColor=inherit;overflow=hidden;fillColor=none;top=0;left=0;bottom=0;right=0;pointerEvents=1;fontSize=16;" vertex="1" parent="J_O9TIOfIreDzyfjVYtf-183">
          <mxGeometry x="43" width="22" height="10" as="geometry">
            <mxRectangle width="22" height="10" as="alternateBounds" />
          </mxGeometry>
        </mxCell>
        <mxCell id="J_O9TIOfIreDzyfjVYtf-200" value="TableA_v01" style="shape=table;startSize=30;container=1;collapsible=0;childLayout=tableLayout;strokeColor=#d6b656;fontSize=10;fillColor=#fff2cc;" vertex="1" parent="1">
          <mxGeometry x="190" y="410" width="65" height="60" as="geometry" />
        </mxCell>
        <mxCell id="J_O9TIOfIreDzyfjVYtf-201" value="" style="shape=tableRow;horizontal=0;startSize=0;swimlaneHead=0;swimlaneBody=0;strokeColor=inherit;top=0;left=0;bottom=0;right=0;collapsible=0;dropTarget=0;fillColor=none;points=[[0,0.5],[1,0.5]];portConstraint=eastwest;fontSize=16;" vertex="1" parent="J_O9TIOfIreDzyfjVYtf-200">
          <mxGeometry y="30" width="65" height="10" as="geometry" />
        </mxCell>
        <mxCell id="J_O9TIOfIreDzyfjVYtf-202" value="" style="shape=partialRectangle;html=1;whiteSpace=wrap;connectable=0;strokeColor=inherit;overflow=hidden;fillColor=none;top=0;left=0;bottom=0;right=0;pointerEvents=1;fontSize=16;" vertex="1" parent="J_O9TIOfIreDzyfjVYtf-201">
          <mxGeometry width="22" height="10" as="geometry">
            <mxRectangle width="22" height="10" as="alternateBounds" />
          </mxGeometry>
        </mxCell>
        <mxCell id="J_O9TIOfIreDzyfjVYtf-203" value="" style="shape=partialRectangle;html=1;whiteSpace=wrap;connectable=0;strokeColor=inherit;overflow=hidden;fillColor=none;top=0;left=0;bottom=0;right=0;pointerEvents=1;fontSize=16;" vertex="1" parent="J_O9TIOfIreDzyfjVYtf-201">
          <mxGeometry x="22" width="21" height="10" as="geometry">
            <mxRectangle width="21" height="10" as="alternateBounds" />
          </mxGeometry>
        </mxCell>
        <mxCell id="J_O9TIOfIreDzyfjVYtf-204" value="" style="shape=partialRectangle;html=1;whiteSpace=wrap;connectable=0;strokeColor=inherit;overflow=hidden;fillColor=none;top=0;left=0;bottom=0;right=0;pointerEvents=1;fontSize=16;" vertex="1" parent="J_O9TIOfIreDzyfjVYtf-201">
          <mxGeometry x="43" width="22" height="10" as="geometry">
            <mxRectangle width="22" height="10" as="alternateBounds" />
          </mxGeometry>
        </mxCell>
        <mxCell id="J_O9TIOfIreDzyfjVYtf-205" value="" style="shape=tableRow;horizontal=0;startSize=0;swimlaneHead=0;swimlaneBody=0;strokeColor=inherit;top=0;left=0;bottom=0;right=0;collapsible=0;dropTarget=0;fillColor=none;points=[[0,0.5],[1,0.5]];portConstraint=eastwest;fontSize=16;" vertex="1" parent="J_O9TIOfIreDzyfjVYtf-200">
          <mxGeometry y="40" width="65" height="10" as="geometry" />
        </mxCell>
        <mxCell id="J_O9TIOfIreDzyfjVYtf-206" value="" style="shape=partialRectangle;html=1;whiteSpace=wrap;connectable=0;strokeColor=inherit;overflow=hidden;fillColor=none;top=0;left=0;bottom=0;right=0;pointerEvents=1;fontSize=16;" vertex="1" parent="J_O9TIOfIreDzyfjVYtf-205">
          <mxGeometry width="22" height="10" as="geometry">
            <mxRectangle width="22" height="10" as="alternateBounds" />
          </mxGeometry>
        </mxCell>
        <mxCell id="J_O9TIOfIreDzyfjVYtf-207" value="" style="shape=partialRectangle;html=1;whiteSpace=wrap;connectable=0;strokeColor=inherit;overflow=hidden;fillColor=none;top=0;left=0;bottom=0;right=0;pointerEvents=1;fontSize=16;" vertex="1" parent="J_O9TIOfIreDzyfjVYtf-205">
          <mxGeometry x="22" width="21" height="10" as="geometry">
            <mxRectangle width="21" height="10" as="alternateBounds" />
          </mxGeometry>
        </mxCell>
        <mxCell id="J_O9TIOfIreDzyfjVYtf-208" value="" style="shape=partialRectangle;html=1;whiteSpace=wrap;connectable=0;strokeColor=inherit;overflow=hidden;fillColor=none;top=0;left=0;bottom=0;right=0;pointerEvents=1;fontSize=16;" vertex="1" parent="J_O9TIOfIreDzyfjVYtf-205">
          <mxGeometry x="43" width="22" height="10" as="geometry">
            <mxRectangle width="22" height="10" as="alternateBounds" />
          </mxGeometry>
        </mxCell>
        <mxCell id="J_O9TIOfIreDzyfjVYtf-209" value="" style="shape=tableRow;horizontal=0;startSize=0;swimlaneHead=0;swimlaneBody=0;strokeColor=inherit;top=0;left=0;bottom=0;right=0;collapsible=0;dropTarget=0;fillColor=none;points=[[0,0.5],[1,0.5]];portConstraint=eastwest;fontSize=16;" vertex="1" parent="J_O9TIOfIreDzyfjVYtf-200">
          <mxGeometry y="50" width="65" height="10" as="geometry" />
        </mxCell>
        <mxCell id="J_O9TIOfIreDzyfjVYtf-210" value="" style="shape=partialRectangle;html=1;whiteSpace=wrap;connectable=0;strokeColor=inherit;overflow=hidden;fillColor=none;top=0;left=0;bottom=0;right=0;pointerEvents=1;fontSize=16;" vertex="1" parent="J_O9TIOfIreDzyfjVYtf-209">
          <mxGeometry width="22" height="10" as="geometry">
            <mxRectangle width="22" height="10" as="alternateBounds" />
          </mxGeometry>
        </mxCell>
        <mxCell id="J_O9TIOfIreDzyfjVYtf-211" value="" style="shape=partialRectangle;html=1;whiteSpace=wrap;connectable=0;strokeColor=inherit;overflow=hidden;fillColor=none;top=0;left=0;bottom=0;right=0;pointerEvents=1;fontSize=16;" vertex="1" parent="J_O9TIOfIreDzyfjVYtf-209">
          <mxGeometry x="22" width="21" height="10" as="geometry">
            <mxRectangle width="21" height="10" as="alternateBounds" />
          </mxGeometry>
        </mxCell>
        <mxCell id="J_O9TIOfIreDzyfjVYtf-212" value="" style="shape=partialRectangle;html=1;whiteSpace=wrap;connectable=0;strokeColor=inherit;overflow=hidden;fillColor=none;top=0;left=0;bottom=0;right=0;pointerEvents=1;fontSize=16;" vertex="1" parent="J_O9TIOfIreDzyfjVYtf-209">
          <mxGeometry x="43" width="22" height="10" as="geometry">
            <mxRectangle width="22" height="10" as="alternateBounds" />
          </mxGeometry>
        </mxCell>
        <mxCell id="J_O9TIOfIreDzyfjVYtf-213" value="" style="shape=flexArrow;endArrow=classic;html=1;rounded=0;" edge="1" parent="1">
          <mxGeometry width="50" height="50" relative="1" as="geometry">
            <mxPoint x="284" y="439.95000000000005" as="sourcePoint" />
            <mxPoint x="404" y="439.65999999999997" as="targetPoint" />
          </mxGeometry>
        </mxCell>
        <mxCell id="J_O9TIOfIreDzyfjVYtf-214" value="TableA" style="shape=table;startSize=30;container=1;collapsible=0;childLayout=tableLayout;strokeColor=#d6b656;fontSize=10;fillColor=#fff2cc;" vertex="1" parent="1">
          <mxGeometry x="420" y="410" width="65" height="60" as="geometry" />
        </mxCell>
        <mxCell id="J_O9TIOfIreDzyfjVYtf-215" value="" style="shape=tableRow;horizontal=0;startSize=0;swimlaneHead=0;swimlaneBody=0;strokeColor=inherit;top=0;left=0;bottom=0;right=0;collapsible=0;dropTarget=0;fillColor=none;points=[[0,0.5],[1,0.5]];portConstraint=eastwest;fontSize=16;" vertex="1" parent="J_O9TIOfIreDzyfjVYtf-214">
          <mxGeometry y="30" width="65" height="10" as="geometry" />
        </mxCell>
        <mxCell id="J_O9TIOfIreDzyfjVYtf-216" value="" style="shape=partialRectangle;html=1;whiteSpace=wrap;connectable=0;strokeColor=inherit;overflow=hidden;fillColor=none;top=0;left=0;bottom=0;right=0;pointerEvents=1;fontSize=16;" vertex="1" parent="J_O9TIOfIreDzyfjVYtf-215">
          <mxGeometry width="22" height="10" as="geometry">
            <mxRectangle width="22" height="10" as="alternateBounds" />
          </mxGeometry>
        </mxCell>
        <mxCell id="J_O9TIOfIreDzyfjVYtf-217" value="" style="shape=partialRectangle;html=1;whiteSpace=wrap;connectable=0;strokeColor=inherit;overflow=hidden;fillColor=none;top=0;left=0;bottom=0;right=0;pointerEvents=1;fontSize=16;" vertex="1" parent="J_O9TIOfIreDzyfjVYtf-215">
          <mxGeometry x="22" width="21" height="10" as="geometry">
            <mxRectangle width="21" height="10" as="alternateBounds" />
          </mxGeometry>
        </mxCell>
        <mxCell id="J_O9TIOfIreDzyfjVYtf-218" value="" style="shape=partialRectangle;html=1;whiteSpace=wrap;connectable=0;strokeColor=inherit;overflow=hidden;fillColor=none;top=0;left=0;bottom=0;right=0;pointerEvents=1;fontSize=16;" vertex="1" parent="J_O9TIOfIreDzyfjVYtf-215">
          <mxGeometry x="43" width="22" height="10" as="geometry">
            <mxRectangle width="22" height="10" as="alternateBounds" />
          </mxGeometry>
        </mxCell>
        <mxCell id="J_O9TIOfIreDzyfjVYtf-219" value="" style="shape=tableRow;horizontal=0;startSize=0;swimlaneHead=0;swimlaneBody=0;strokeColor=inherit;top=0;left=0;bottom=0;right=0;collapsible=0;dropTarget=0;fillColor=none;points=[[0,0.5],[1,0.5]];portConstraint=eastwest;fontSize=16;" vertex="1" parent="J_O9TIOfIreDzyfjVYtf-214">
          <mxGeometry y="40" width="65" height="10" as="geometry" />
        </mxCell>
        <mxCell id="J_O9TIOfIreDzyfjVYtf-220" value="" style="shape=partialRectangle;html=1;whiteSpace=wrap;connectable=0;strokeColor=inherit;overflow=hidden;fillColor=none;top=0;left=0;bottom=0;right=0;pointerEvents=1;fontSize=16;" vertex="1" parent="J_O9TIOfIreDzyfjVYtf-219">
          <mxGeometry width="22" height="10" as="geometry">
            <mxRectangle width="22" height="10" as="alternateBounds" />
          </mxGeometry>
        </mxCell>
        <mxCell id="J_O9TIOfIreDzyfjVYtf-221" value="" style="shape=partialRectangle;html=1;whiteSpace=wrap;connectable=0;strokeColor=inherit;overflow=hidden;fillColor=none;top=0;left=0;bottom=0;right=0;pointerEvents=1;fontSize=16;" vertex="1" parent="J_O9TIOfIreDzyfjVYtf-219">
          <mxGeometry x="22" width="21" height="10" as="geometry">
            <mxRectangle width="21" height="10" as="alternateBounds" />
          </mxGeometry>
        </mxCell>
        <mxCell id="J_O9TIOfIreDzyfjVYtf-222" value="" style="shape=partialRectangle;html=1;whiteSpace=wrap;connectable=0;strokeColor=inherit;overflow=hidden;fillColor=none;top=0;left=0;bottom=0;right=0;pointerEvents=1;fontSize=16;" vertex="1" parent="J_O9TIOfIreDzyfjVYtf-219">
          <mxGeometry x="43" width="22" height="10" as="geometry">
            <mxRectangle width="22" height="10" as="alternateBounds" />
          </mxGeometry>
        </mxCell>
        <mxCell id="J_O9TIOfIreDzyfjVYtf-223" value="" style="shape=tableRow;horizontal=0;startSize=0;swimlaneHead=0;swimlaneBody=0;strokeColor=inherit;top=0;left=0;bottom=0;right=0;collapsible=0;dropTarget=0;fillColor=none;points=[[0,0.5],[1,0.5]];portConstraint=eastwest;fontSize=16;" vertex="1" parent="J_O9TIOfIreDzyfjVYtf-214">
          <mxGeometry y="50" width="65" height="10" as="geometry" />
        </mxCell>
        <mxCell id="J_O9TIOfIreDzyfjVYtf-224" value="" style="shape=partialRectangle;html=1;whiteSpace=wrap;connectable=0;strokeColor=inherit;overflow=hidden;fillColor=none;top=0;left=0;bottom=0;right=0;pointerEvents=1;fontSize=16;" vertex="1" parent="J_O9TIOfIreDzyfjVYtf-223">
          <mxGeometry width="22" height="10" as="geometry">
            <mxRectangle width="22" height="10" as="alternateBounds" />
          </mxGeometry>
        </mxCell>
        <mxCell id="J_O9TIOfIreDzyfjVYtf-225" value="" style="shape=partialRectangle;html=1;whiteSpace=wrap;connectable=0;strokeColor=inherit;overflow=hidden;fillColor=none;top=0;left=0;bottom=0;right=0;pointerEvents=1;fontSize=16;" vertex="1" parent="J_O9TIOfIreDzyfjVYtf-223">
          <mxGeometry x="22" width="21" height="10" as="geometry">
            <mxRectangle width="21" height="10" as="alternateBounds" />
          </mxGeometry>
        </mxCell>
        <mxCell id="J_O9TIOfIreDzyfjVYtf-226" value="" style="shape=partialRectangle;html=1;whiteSpace=wrap;connectable=0;strokeColor=inherit;overflow=hidden;fillColor=none;top=0;left=0;bottom=0;right=0;pointerEvents=1;fontSize=16;" vertex="1" parent="J_O9TIOfIreDzyfjVYtf-223">
          <mxGeometry x="43" width="22" height="10" as="geometry">
            <mxRectangle width="22" height="10" as="alternateBounds" />
          </mxGeometry>
        </mxCell>
        <mxCell id="J_O9TIOfIreDzyfjVYtf-240" value="TableA_tmp" style="shape=table;startSize=30;container=1;collapsible=0;childLayout=tableLayout;strokeColor=#b85450;fontSize=10;fillColor=#f8cecc;" vertex="1" parent="1">
          <mxGeometry x="190" y="495" width="65" height="60" as="geometry" />
        </mxCell>
        <mxCell id="J_O9TIOfIreDzyfjVYtf-241" value="" style="shape=tableRow;horizontal=0;startSize=0;swimlaneHead=0;swimlaneBody=0;strokeColor=inherit;top=0;left=0;bottom=0;right=0;collapsible=0;dropTarget=0;fillColor=none;points=[[0,0.5],[1,0.5]];portConstraint=eastwest;fontSize=16;" vertex="1" parent="J_O9TIOfIreDzyfjVYtf-240">
          <mxGeometry y="30" width="65" height="10" as="geometry" />
        </mxCell>
        <mxCell id="J_O9TIOfIreDzyfjVYtf-242" value="" style="shape=partialRectangle;html=1;whiteSpace=wrap;connectable=0;strokeColor=inherit;overflow=hidden;fillColor=none;top=0;left=0;bottom=0;right=0;pointerEvents=1;fontSize=16;" vertex="1" parent="J_O9TIOfIreDzyfjVYtf-241">
          <mxGeometry width="22" height="10" as="geometry">
            <mxRectangle width="22" height="10" as="alternateBounds" />
          </mxGeometry>
        </mxCell>
        <mxCell id="J_O9TIOfIreDzyfjVYtf-243" value="" style="shape=partialRectangle;html=1;whiteSpace=wrap;connectable=0;strokeColor=inherit;overflow=hidden;fillColor=none;top=0;left=0;bottom=0;right=0;pointerEvents=1;fontSize=16;" vertex="1" parent="J_O9TIOfIreDzyfjVYtf-241">
          <mxGeometry x="22" width="21" height="10" as="geometry">
            <mxRectangle width="21" height="10" as="alternateBounds" />
          </mxGeometry>
        </mxCell>
        <mxCell id="J_O9TIOfIreDzyfjVYtf-244" value="" style="shape=partialRectangle;html=1;whiteSpace=wrap;connectable=0;strokeColor=inherit;overflow=hidden;fillColor=none;top=0;left=0;bottom=0;right=0;pointerEvents=1;fontSize=16;" vertex="1" parent="J_O9TIOfIreDzyfjVYtf-241">
          <mxGeometry x="43" width="22" height="10" as="geometry">
            <mxRectangle width="22" height="10" as="alternateBounds" />
          </mxGeometry>
        </mxCell>
        <mxCell id="J_O9TIOfIreDzyfjVYtf-245" value="" style="shape=tableRow;horizontal=0;startSize=0;swimlaneHead=0;swimlaneBody=0;strokeColor=inherit;top=0;left=0;bottom=0;right=0;collapsible=0;dropTarget=0;fillColor=none;points=[[0,0.5],[1,0.5]];portConstraint=eastwest;fontSize=16;" vertex="1" parent="J_O9TIOfIreDzyfjVYtf-240">
          <mxGeometry y="40" width="65" height="10" as="geometry" />
        </mxCell>
        <mxCell id="J_O9TIOfIreDzyfjVYtf-246" value="" style="shape=partialRectangle;html=1;whiteSpace=wrap;connectable=0;strokeColor=inherit;overflow=hidden;fillColor=none;top=0;left=0;bottom=0;right=0;pointerEvents=1;fontSize=16;" vertex="1" parent="J_O9TIOfIreDzyfjVYtf-245">
          <mxGeometry width="22" height="10" as="geometry">
            <mxRectangle width="22" height="10" as="alternateBounds" />
          </mxGeometry>
        </mxCell>
        <mxCell id="J_O9TIOfIreDzyfjVYtf-247" value="" style="shape=partialRectangle;html=1;whiteSpace=wrap;connectable=0;strokeColor=inherit;overflow=hidden;fillColor=none;top=0;left=0;bottom=0;right=0;pointerEvents=1;fontSize=16;" vertex="1" parent="J_O9TIOfIreDzyfjVYtf-245">
          <mxGeometry x="22" width="21" height="10" as="geometry">
            <mxRectangle width="21" height="10" as="alternateBounds" />
          </mxGeometry>
        </mxCell>
        <mxCell id="J_O9TIOfIreDzyfjVYtf-248" value="" style="shape=partialRectangle;html=1;whiteSpace=wrap;connectable=0;strokeColor=inherit;overflow=hidden;fillColor=none;top=0;left=0;bottom=0;right=0;pointerEvents=1;fontSize=16;" vertex="1" parent="J_O9TIOfIreDzyfjVYtf-245">
          <mxGeometry x="43" width="22" height="10" as="geometry">
            <mxRectangle width="22" height="10" as="alternateBounds" />
          </mxGeometry>
        </mxCell>
        <mxCell id="J_O9TIOfIreDzyfjVYtf-249" value="" style="shape=tableRow;horizontal=0;startSize=0;swimlaneHead=0;swimlaneBody=0;strokeColor=inherit;top=0;left=0;bottom=0;right=0;collapsible=0;dropTarget=0;fillColor=none;points=[[0,0.5],[1,0.5]];portConstraint=eastwest;fontSize=16;" vertex="1" parent="J_O9TIOfIreDzyfjVYtf-240">
          <mxGeometry y="50" width="65" height="10" as="geometry" />
        </mxCell>
        <mxCell id="J_O9TIOfIreDzyfjVYtf-250" value="" style="shape=partialRectangle;html=1;whiteSpace=wrap;connectable=0;strokeColor=inherit;overflow=hidden;fillColor=none;top=0;left=0;bottom=0;right=0;pointerEvents=1;fontSize=16;" vertex="1" parent="J_O9TIOfIreDzyfjVYtf-249">
          <mxGeometry width="22" height="10" as="geometry">
            <mxRectangle width="22" height="10" as="alternateBounds" />
          </mxGeometry>
        </mxCell>
        <mxCell id="J_O9TIOfIreDzyfjVYtf-251" value="" style="shape=partialRectangle;html=1;whiteSpace=wrap;connectable=0;strokeColor=inherit;overflow=hidden;fillColor=none;top=0;left=0;bottom=0;right=0;pointerEvents=1;fontSize=16;" vertex="1" parent="J_O9TIOfIreDzyfjVYtf-249">
          <mxGeometry x="22" width="21" height="10" as="geometry">
            <mxRectangle width="21" height="10" as="alternateBounds" />
          </mxGeometry>
        </mxCell>
        <mxCell id="J_O9TIOfIreDzyfjVYtf-252" value="" style="shape=partialRectangle;html=1;whiteSpace=wrap;connectable=0;strokeColor=inherit;overflow=hidden;fillColor=none;top=0;left=0;bottom=0;right=0;pointerEvents=1;fontSize=16;" vertex="1" parent="J_O9TIOfIreDzyfjVYtf-249">
          <mxGeometry x="43" width="22" height="10" as="geometry">
            <mxRectangle width="22" height="10" as="alternateBounds" />
          </mxGeometry>
        </mxCell>
        <mxCell id="J_O9TIOfIreDzyfjVYtf-253" value="" style="shape=flexArrow;endArrow=classic;html=1;rounded=0;" edge="1" parent="1">
          <mxGeometry width="50" height="50" relative="1" as="geometry">
            <mxPoint x="284" y="524.95" as="sourcePoint" />
            <mxPoint x="404" y="524.66" as="targetPoint" />
          </mxGeometry>
        </mxCell>
        <mxCell id="J_O9TIOfIreDzyfjVYtf-254" value="TableA_v02" style="shape=table;startSize=30;container=1;collapsible=0;childLayout=tableLayout;strokeColor=#d6b656;fontSize=10;fillColor=#fff2cc;" vertex="1" parent="1">
          <mxGeometry x="420" y="500" width="65" height="60" as="geometry" />
        </mxCell>
        <mxCell id="J_O9TIOfIreDzyfjVYtf-255" value="" style="shape=tableRow;horizontal=0;startSize=0;swimlaneHead=0;swimlaneBody=0;strokeColor=inherit;top=0;left=0;bottom=0;right=0;collapsible=0;dropTarget=0;fillColor=none;points=[[0,0.5],[1,0.5]];portConstraint=eastwest;fontSize=16;" vertex="1" parent="J_O9TIOfIreDzyfjVYtf-254">
          <mxGeometry y="30" width="65" height="10" as="geometry" />
        </mxCell>
        <mxCell id="J_O9TIOfIreDzyfjVYtf-256" value="" style="shape=partialRectangle;html=1;whiteSpace=wrap;connectable=0;strokeColor=inherit;overflow=hidden;fillColor=none;top=0;left=0;bottom=0;right=0;pointerEvents=1;fontSize=16;" vertex="1" parent="J_O9TIOfIreDzyfjVYtf-255">
          <mxGeometry width="22" height="10" as="geometry">
            <mxRectangle width="22" height="10" as="alternateBounds" />
          </mxGeometry>
        </mxCell>
        <mxCell id="J_O9TIOfIreDzyfjVYtf-257" value="" style="shape=partialRectangle;html=1;whiteSpace=wrap;connectable=0;strokeColor=inherit;overflow=hidden;fillColor=none;top=0;left=0;bottom=0;right=0;pointerEvents=1;fontSize=16;" vertex="1" parent="J_O9TIOfIreDzyfjVYtf-255">
          <mxGeometry x="22" width="21" height="10" as="geometry">
            <mxRectangle width="21" height="10" as="alternateBounds" />
          </mxGeometry>
        </mxCell>
        <mxCell id="J_O9TIOfIreDzyfjVYtf-258" value="" style="shape=partialRectangle;html=1;whiteSpace=wrap;connectable=0;strokeColor=inherit;overflow=hidden;fillColor=none;top=0;left=0;bottom=0;right=0;pointerEvents=1;fontSize=16;" vertex="1" parent="J_O9TIOfIreDzyfjVYtf-255">
          <mxGeometry x="43" width="22" height="10" as="geometry">
            <mxRectangle width="22" height="10" as="alternateBounds" />
          </mxGeometry>
        </mxCell>
        <mxCell id="J_O9TIOfIreDzyfjVYtf-259" value="" style="shape=tableRow;horizontal=0;startSize=0;swimlaneHead=0;swimlaneBody=0;strokeColor=inherit;top=0;left=0;bottom=0;right=0;collapsible=0;dropTarget=0;fillColor=none;points=[[0,0.5],[1,0.5]];portConstraint=eastwest;fontSize=16;" vertex="1" parent="J_O9TIOfIreDzyfjVYtf-254">
          <mxGeometry y="40" width="65" height="10" as="geometry" />
        </mxCell>
        <mxCell id="J_O9TIOfIreDzyfjVYtf-260" value="" style="shape=partialRectangle;html=1;whiteSpace=wrap;connectable=0;strokeColor=inherit;overflow=hidden;fillColor=none;top=0;left=0;bottom=0;right=0;pointerEvents=1;fontSize=16;" vertex="1" parent="J_O9TIOfIreDzyfjVYtf-259">
          <mxGeometry width="22" height="10" as="geometry">
            <mxRectangle width="22" height="10" as="alternateBounds" />
          </mxGeometry>
        </mxCell>
        <mxCell id="J_O9TIOfIreDzyfjVYtf-261" value="" style="shape=partialRectangle;html=1;whiteSpace=wrap;connectable=0;strokeColor=inherit;overflow=hidden;fillColor=none;top=0;left=0;bottom=0;right=0;pointerEvents=1;fontSize=16;" vertex="1" parent="J_O9TIOfIreDzyfjVYtf-259">
          <mxGeometry x="22" width="21" height="10" as="geometry">
            <mxRectangle width="21" height="10" as="alternateBounds" />
          </mxGeometry>
        </mxCell>
        <mxCell id="J_O9TIOfIreDzyfjVYtf-262" value="" style="shape=partialRectangle;html=1;whiteSpace=wrap;connectable=0;strokeColor=inherit;overflow=hidden;fillColor=none;top=0;left=0;bottom=0;right=0;pointerEvents=1;fontSize=16;" vertex="1" parent="J_O9TIOfIreDzyfjVYtf-259">
          <mxGeometry x="43" width="22" height="10" as="geometry">
            <mxRectangle width="22" height="10" as="alternateBounds" />
          </mxGeometry>
        </mxCell>
        <mxCell id="J_O9TIOfIreDzyfjVYtf-263" value="" style="shape=tableRow;horizontal=0;startSize=0;swimlaneHead=0;swimlaneBody=0;strokeColor=inherit;top=0;left=0;bottom=0;right=0;collapsible=0;dropTarget=0;fillColor=none;points=[[0,0.5],[1,0.5]];portConstraint=eastwest;fontSize=16;" vertex="1" parent="J_O9TIOfIreDzyfjVYtf-254">
          <mxGeometry y="50" width="65" height="10" as="geometry" />
        </mxCell>
        <mxCell id="J_O9TIOfIreDzyfjVYtf-264" value="" style="shape=partialRectangle;html=1;whiteSpace=wrap;connectable=0;strokeColor=inherit;overflow=hidden;fillColor=none;top=0;left=0;bottom=0;right=0;pointerEvents=1;fontSize=16;" vertex="1" parent="J_O9TIOfIreDzyfjVYtf-263">
          <mxGeometry width="22" height="10" as="geometry">
            <mxRectangle width="22" height="10" as="alternateBounds" />
          </mxGeometry>
        </mxCell>
        <mxCell id="J_O9TIOfIreDzyfjVYtf-265" value="" style="shape=partialRectangle;html=1;whiteSpace=wrap;connectable=0;strokeColor=inherit;overflow=hidden;fillColor=none;top=0;left=0;bottom=0;right=0;pointerEvents=1;fontSize=16;" vertex="1" parent="J_O9TIOfIreDzyfjVYtf-263">
          <mxGeometry x="22" width="21" height="10" as="geometry">
            <mxRectangle width="21" height="10" as="alternateBounds" />
          </mxGeometry>
        </mxCell>
        <mxCell id="J_O9TIOfIreDzyfjVYtf-266" value="" style="shape=partialRectangle;html=1;whiteSpace=wrap;connectable=0;strokeColor=inherit;overflow=hidden;fillColor=none;top=0;left=0;bottom=0;right=0;pointerEvents=1;fontSize=16;" vertex="1" parent="J_O9TIOfIreDzyfjVYtf-263">
          <mxGeometry x="43" width="22" height="10" as="geometry">
            <mxRectangle width="22" height="10" as="alternateBounds" />
          </mxGeometry>
        </mxCell>
        <mxCell id="J_O9TIOfIreDzyfjVYtf-267" value="&lt;font style=&quot;font-size: 9px;&quot;&gt;①已被污染表重命名&lt;/font&gt;" style="text;html=1;strokeColor=none;fillColor=none;align=center;verticalAlign=middle;whiteSpace=wrap;rounded=0;" vertex="1" parent="1">
          <mxGeometry x="280" y="320" width="90" height="30" as="geometry" />
        </mxCell>
        <mxCell id="J_O9TIOfIreDzyfjVYtf-270" value="&lt;font style=&quot;font-size: 9px;&quot;&gt;②使用临时表重命名，切换代替原表&lt;/font&gt;" style="text;html=1;strokeColor=none;fillColor=none;align=center;verticalAlign=middle;whiteSpace=wrap;rounded=0;" vertex="1" parent="1">
          <mxGeometry x="290" y="400" width="90" height="30" as="geometry" />
        </mxCell>
        <mxCell id="J_O9TIOfIreDzyfjVYtf-271" value="&lt;font style=&quot;font-size: 9px;&quot;&gt;③使用备份表，生成成新的临时表。用于下次数据回滚支持&lt;/font&gt;" style="text;html=1;strokeColor=none;fillColor=none;align=center;verticalAlign=middle;whiteSpace=wrap;rounded=0;" vertex="1" parent="1">
          <mxGeometry x="290" y="480" width="90" height="30" as="geometry" />
        </mxCell>
      </root>
    </mxGraphModel>
  </diagram>
</mxfile>
